<svg xmlns="http://www.w3.org/2000/svg" width="36" height="36" viewBox="0 0 36 36"><path d="M24.1,15.043c.41,3-.378,6.348-2.885,8.092a6.088,6.088,0,0,1-5.689.458c-2.981-1.39-3.978-4.709-3.761-7.811.346-4.894,3.287-7.063,6.051-7.031C21.584,8.735,23.585,11.306,24.1,15.043ZM36,6.75v27a4.5,4.5,0,0,1-4.5,4.5H4.5A4.5,4.5,0,0,1,0,33.75v-27a4.5,4.5,0,0,1,4.5-4.5h27A4.5,4.5,0,0,1,36,6.75Zm-9.482,18.1s-.008-2.732-.008-17.462h-2.33v3.238c-.064.024-.1-.04-.129-.1a6.683,6.683,0,0,0-6.107-3.7A8.113,8.113,0,0,0,9.86,13.082a12.252,12.252,0,0,0-.442,3.664c.137,6.26,3.624,9.466,9.032,9.257a6.421,6.421,0,0,0,5.545-3.632c.04-.08.088-.153.137-.233.016.008.032.008.048.016.024.305.016,2.467.008,2.772a10.36,10.36,0,0,1-.579,3.5A4.7,4.7,0,0,1,20.033,31.6a8.654,8.654,0,0,1-4.275-.1,4.232,4.232,0,0,1-3.3-3.359c-.024-.129-.1-.1-.185-.1H10.117a5.238,5.238,0,0,0,.683,2.346c1.945,3.254,6.646,3.9,10.3,3.005C25.112,32.4,26.51,28.977,26.518,24.846Z" transform="translate(0 -2.25)"/></svg>