<svg xmlns="http://www.w3.org/2000/svg" width="36" height="36" viewBox="0 0 36 36"><path d="M32.524,1.928H8.618A6.065,6.065,0,0,0,2.571,7.975V31.881a6.065,6.065,0,0,0,6.047,6.047H32.524a6.065,6.065,0,0,0,6.047-6.047V7.975a6.065,6.065,0,0,0-6.047-6.047ZM16.071,31.178h-4.5V15.428h4.5v15.75Zm-2.25-18a2.25,2.25,0,1,1,2.25-2.25A2.25,2.25,0,0,1,13.821,13.178Zm18,18h-4.5v-9a2.25,2.25,0,0,0-4.5,0v9h-4.5V15.428h4.5v2.794c.928-1.275,2.347-2.794,3.937-2.794a5.366,5.366,0,0,1,5.063,5.625V31.178Z" transform="translate(-2.571 -1.928)"/></svg>